# AST/ASF file generated using VICON BodyLanguage
# -----------------------------------------------
:version 1.10
:name VICON
:units
  mass 1.0
  length 0.45
  angle deg
:documentation
   .ast/.asf automatically generated from VICON data using
   VICON BodyBuilder and BodyLanguage model FoxedUp or BRILLIANT.MOD
:root
   order TX TY TZ RX RY RZ
   axis XYZ
   position 0 0 0  
   orientation 0 0 0 
:bonedata
  begin
     id 1 
     name lhipjoint
     direction 0.558404 -0.748506 0.357664 
     length 2.4234 
     axis 0 0 0  XYZ
  end
  begin
     id 2 
     name lfemur
     direction 0.34202 -0.939693 0  
     length 7.14567  
     axis 0 0 20  XYZ
    dof rx ry rz
    limits (-160.0 20.0)
           (-70.0 70.0)
           (-60.0 70.0)
  end
  begin
     id 3 
     name ltibia
     direction 0.34202 -0.939693 0   
     length 8.13956   
     axis 0 0 20   XYZ
    dof rx
    limits (-10.0 170.0)
  end
  begin
     id 4 
     name lfoot
     direction 0.0791314 -0.217412 0.972867   
     length 2.00134   
     axis -90 7.62852e-016 20   XYZ
    dof rx rz
    limits (-45.0 90.0)
           (-70.0 20.0)
  end
  begin
     id 5 
     name ltoes
     direction 1.53547e-011 -4.21922e-011 1   
     length 1.00735   
     axis -90 7.62852e-016 20   XYZ
    dof rx
    limits (-90.0 20.0)
  end
  begin
     id 6 
     name rhipjoint
     direction -0.496392 -0.78327 0.374276   
     length 2.31584  
     axis 0 0 0  XYZ 
  end
  begin
     id 7 
     name rfemur
     direction -0.34202 -0.939693 0   
     length 7.47417   
     axis 0 0 -20   XYZ
    dof rx ry rz
    limits (-160.0 20.0)
           (-70.0 70.0)
           (-70.0 60.0)
  end
  begin
     id 8 
     name rtibia
     direction -0.34202 -0.939693 0   
     length 7.69071   
     axis 0 0 -20   XYZ
    dof rx
    limits (-10.0 170.0)
 end
 begin
     id 9 
     name rfoot
     direction -0.103069 -0.28318 0.953512   
     length 2.16135  
     axis -90 -7.62852e-016 -20   XYZ
    dof rx rz
    limits (-45.0 90.0)
           (-20.0 70.0)
  end
  begin
     id 10 
     name rtoes
     direction -1.53581e-011 -4.21904e-011 1   
     length 1.07867   
     axis -90 -7.62852e-016 -20   XYZ
    dof rx
    limits (-90.0 20.0)
  end
  begin
     id 11 
     name lowerback
     direction -0.0258961 0.994776 -0.0987407   
     length 2.19412   
     axis 0 0 0   XYZ
    dof rx ry rz
    limits (-20.0 45.0)
           (-30.0 30.0)
           (-30.0 30.0)
  end
  begin
     id 12 
     name upperback
     direction 0.0402454 0.999185 0.00320666   
     length 2.18445   
     axis 0 0 0   XYZ
    dof rx ry rz
    limits (-20.0 45.0)
           (-30.0 30.0)
           (-30.0 30.0)
  end
  begin
     id 13 
     name thorax
     direction 0.0519376 0.997415 0.0496558   
     length 2.21487   
     axis 0 0 0   XYZ
    dof rx ry rz
    limits (-20.0 45.0)
           (-30.0 30.0)
           (-30.0 30.0)
  end
  begin
     id 14 
     name lowerneck
     direction -0.0921276 0.983211 0.157506   
     length 1.61201   
     axis 0 0 0   XYZ
    dof rx ry rz
    limits (-20.0 45.0)
           (-30.0 30.0)
           (-30.0 30.0)
  end
  begin
     id 15 
     name upperneck
     direction 0.0820814 0.98162 -0.172292   
     length 1.65275   
     axis 0 0 0   XYZ
    dof rx ry rz
    limits (-20.0 45.0)
           (-30.0 30.0)
           (-30.0 30.0)
  end
  begin
     id 16
     name head
     direction 0.0336554 0.996413 -0.0776455  
     length 1.66415  
     axis 0 0 0   XYZ
    dof rx ry rz
    limits (-20.0 45.0)
           (-30.0 30.0)
           (-30.0 30.0)
  end
  begin
     id 17 
     name lclavicle
     direction 0.94696 0.284418 -0.149576  
     length 3.41447  
     axis 0 0 0   XYZ
    dof ry rz
    limits (-20.0 10.0)
           (0.0 20.0)
  end
  begin
     id 18 
     name lhumerus
     direction 1 -0.000130264 -9.81312e-005   
     length 5.19964   
     axis 180 -30 -90   XYZ
    dof rx ry rz
    limits (-60.0 90.0)
           (-90.0 90.0)
           (-90.0 90.0)
  end
  begin
     id 19
     name lradius
     direction 1 -4.48961e-011 1.43854e-026   
     length 3.32189   
     axis 180 -30 -90   XYZ
    dof rx
    limits (-10.0 170.0)
  end
  begin
     id 20
     name lwrist
     direction 1 -4.48958e-011 3.1502e-026   
     length 1.66095   
     axis -1.97692e-014 90 90   XYZ
    dof ry
    limits (-180.0 0.0)
 end
  begin
     id 21 
     name lhand
     direction 1 -4.48927e-011 6.3004e-026   
     length 0.645616   
     axis -4.02019e-014 90 90   XYZ
    dof rx rz
    limits (-90.0 90.0)
           (-45.0 45.0)
  end
  begin
     id 22 
     name lfingers
     direction 1 -4.4904e-011 1.26008e-025   
     length 0.520512   
     axis -8.04039e-014 90 90   XYZ
    dof rx
    limits (0.0 90.0)
  end
  begin
     id 23
     name lthumb
     direction 0.707107 -6.34947e-011 0.707107   
     length 0.747354   
     axis -90 45 2.85299e-015   XYZ
    dof rx rz
    limits (-45.0 45.0)
           (-45.0 45.0)
  end
  begin
     id 24 
     name rclavicle
     direction -0.909391 0.383475 -0.161107   
     length 3.25176  
     axis 0 0 0   XYZ 
    dof ry rz
    limits (-10.0 20.0)
           (-20.0 0.0)
  end
  begin
     id 25 
     name rhumerus
     direction -1 -4.48965e-011 -1.81384e-027  
     length 5.6595   
     axis 180 30 90   XYZ
    dof rx ry rz
    limits (-90.0 60.0)
           (-90.0 90.0)
           (-90.0 90.0)
  end
  begin
     id 26 
     name rradius
     direction -1 -4.48996e-011 -8.09397e-027   
     length 3.37604   
     axis 180 30 90   XYZ
    dof rx
    limits (-10.0 170.0)
  end
  begin
     id 27 
     name rwrist
     direction -1 -4.48927e-011 -1.56669e-026   
     length 1.68802   
     axis 1.21142e-014 -90 -90   XYZ
    dof ry
    limits (-180.0 0.0)
  end
  begin
     id 28
     name rhand
     direction -1 -4.48912e-011 -3.13339e-026   
     length 0.824702   
     axis 1.99937e-014 -90 -90   XYZ
    dof rx rz
    limits (-90.0 90.0)
           (-45.0 45.0)
  end
  begin
     id 29
     name rfingers
     direction -1 -4.49011e-011 -6.26677e-026   
     length 0.664896   
     axis 3.99874e-014 -90 -90   XYZ
    dof rx
    limits (0.0 90.0)
  end
  begin
     id 30
     name rthumb
     direction -0.707107 -6.34931e-011 0.707107   
     length 0.954662   
     axis -90 -45 -2.85299e-015   XYZ
    dof rx rz
    limits (-45.0 45.0)
           (-45.0 45.0)
  end
:hierarchy
  begin
    root lhipjoint rhipjoint lowerback
    lhipjoint lfemur
    lfemur ltibia
    ltibia lfoot
    lfoot ltoes
    rhipjoint rfemur
    rfemur rtibia
    rtibia rfoot
    rfoot rtoes
    lowerback upperback
    upperback thorax
    thorax lowerneck lclavicle rclavicle
    lowerneck upperneck
    upperneck head
    lclavicle lhumerus
    lhumerus lradius
    lradius lwrist
    lwrist lhand lthumb
    lhand lfingers
    rclavicle rhumerus
    rhumerus rradius
    rradius rwrist
    rwrist rhand rthumb
    rhand rfingers
  end

#!OML:ASF F:\VICON\USERDATA\INSTALL\rory3\rory3.ASF
:FULLY-SPECIFIED
:DEGREES
227
root 10.247 17.2453 9.41083 0.90217 9.32956 0.43285
lowerback 10.314 -0.172325 -0.685026
upperback -1.703 0.0580548 4.95045
thorax -7.62567 0.186412 5.65597
lowerneck -5.14629 -7.1013 -15.0927
upperneck 17.5294 -10.2243 12.48
head 7.6375 -4.95966 5.72321
rclavicle 2.20154e-014 1.43125e-014
rhumerus -18.7126 -8.91953 -55.6415
rradius 75.6207
rwrist -24.3137
rhand -16.4857 18.1975
rfingers 7.12502
rthumb 9.73156 -11.5577
lclavicle 2.20154e-014 1.43125e-014
lhumerus -20.1199 55.2452 52.2362
lradius 23.861
lwrist -8.0743
lhand -13.4381 40.6318
lfingers 7.12502
lthumb 12.6709 70.2274
rfemur -27.3837 -0.33263 14.2627
rtibia 43.6142
rfoot -12.3454 -6.19869
rtoes 19.7174
lfemur -12.1773 -9.3086 -8.2093
ltibia 34.4785
lfoot -18.8376 -7.30671
ltoes -19.8232
228
root 10.3313 17.2478 9.41441 1.11117 8.59305 0.797308
lowerback 9.68848 0.00952248 -1.23955
upperback -1.33644 0.201637 4.88988
thorax -6.89128 0.25747 5.86161
lowerneck -5.22698 -7.16733 -15.2476
upperneck 17.2256 -10.2987 12.6881
head 7.58414 -4.98712 5.80495
rclavicle -1.92821e-014 -1.74931e-014
rhumerus -17.7553 -8.88322 -55.6429
rradius 76.9176
rwrist -24.4252
rhand -16.6521 18.397
rfingers 7.12502
rthumb 9.57098 -11.3656
lclavicle -1.92821e-014 -1.74931e-014
lhumerus -22.2823 56.2258 48.9094
lradius 23.5754
lwrist -6.4454
lhand -14.2612 42.3364
lfingers 7.12502
lthumb 11.8773 71.9795
rfemur -27.6471 0.136657 13.5851
rtibia 43.5992
rfoot -12.2656 -5.97658
rtoes 19.5982
lfemur -12.0179 -8.186 -9.03647
ltibia 34.3694
lfoot -18.9301 -6.89388
ltoes -14.8239
229
root 10.4131 17.2505 9.42312 1.28251 8.06771 0.961732
lowerback 9.98214 0.104615 -1.57403
upperback -1.66039 0.296519 4.81908
thorax -7.41929 0.333454 5.97783
lowerneck -4.86247 -7.11113 -15.4471
upperneck 17.4496 -10.3108 12.9002
head 7.61469 -5.00464 5.92591
rclavicle 2.56432e-014 -5.56597e-014
rhumerus -17.7035 -8.28909 -55.6041
rradius 78.0665
rwrist -24.4061
rhand -17.0575 18.7133
rfingers 7.12502
rthumb 9.17987 -11.0668
lclavicle 2.56432e-014 -5.56597e-014
lhumerus -25.5208 55.1615 44.9957
lradius 23.6752
lwrist -3.73731
lhand -13.916 43.2645
lfingers 7.12502
lthumb 12.2101 72.8881
rfemur -27.8159 0.517024 13.1244
rtibia 43.5139
rfoot -12.2519 -5.85995
rtoes 19.2342
lfemur -11.9362 -7.20095 -9.66712
ltibia 34.3546
lfoot -19.1344 -6.08488
ltoes -12.1248
230
root 10.4969 17.2535 9.43822 1.39762 7.79491 1.17991
lowerback 9.95326 0.128098 -1.85348
upperback -1.70707 0.284527 4.69981
thorax -7.45224 0.3381 6.01222
lowerneck -4.5015 -7.16198 -15.7106
upperneck 17.3595 -10.4692 13.2845
head 7.57977 -5.084 6.09558
rclavicle 2.5842e-015 -2.06736e-014
rhumerus -17.3002 -7.99813 -55.6459
rradius 78.9993
rwrist -24.3387
rhand -17.4916 18.897
rfingers 7.12502
rthumb 8.76101 -10.9012
lclavicle 2.5842e-015 -2.06736e-014
lhumerus -28.2971 54.643 41.3672
lradius 23.5353
lwrist -2.70921
lhand -12.3683 43.0853
lfingers 7.12502
lthumb 13.7021 72.6143
rfemur -27.7992 0.67779 12.5873
rtibia 43.3773
rfoot -12.276 -5.74208
rtoes 18.9647
lfemur -11.7719 -6.57808 -10.4179
ltibia 34.3455
lfoot -19.5348 -4.95677
ltoes -12.0851
231
root 10.5833 17.2595 9.44545 1.54601 7.40801 1.44089
lowerback 9.84411 0.205998 -2.16568
upperback -1.69654 0.340812 4.59684
thorax -7.38655 0.374693 6.06915
lowerneck -4.30192 -7.21261 -16.0232
upperneck 17.3365 -10.6249 13.7658
head 7.60457 -5.1527 6.30463
rclavicle 6.26172e-015 -2.38542e-014
rhumerus -17.0408 -7.77352 -55.6075
rradius 80.0432
rwrist -24.2674
rhand -17.918 18.769
rfingers 7.12502
rthumb 8.34944 -11.046
lclavicle 6.26172e-015 -2.38542e-014
lhumerus -30.7083 53.6193 38.3317
lradius 23.3474
lwrist -1.82175
lhand -12.163 43.2944
lfingers 7.12502
lthumb 13.9 72.8098
rfemur -27.8554 0.848522 11.9777
rtibia 43.1926
rfoot -12.1802 -5.51427
rtoes 19.1482
lfemur -11.6234 -6.23349 -11.2622
ltibia 34.2533
lfoot -19.9012 -3.62717
ltoes -12.0821
232
root 10.6719 17.2633 9.44764 1.74966 6.80174 1.76044
lowerback 9.68687 0.379739 -2.52191
upperback -1.70065 0.518523 4.45253
thorax -7.32479 0.471973 6.08716
lowerneck -3.79583 -7.15211 -16.4337
upperneck 17.139 -10.6977 14.5412
head 7.52495 -5.18164 6.65185
rclavicle -4.27387e-015 1.74931e-014
rhumerus -16.8895 -7.60917 -55.5859
rradius 81.0565
rwrist -24.1239
rhand -18.2035 18.668
rfingers 7.12502
rthumb 8.07396 -11.1577
lclavicle -4.27387e-015 1.74931e-014
lhumerus -32.8399 52.5393 35.693
lradius 23.1545
lwrist -1.50744
lhand -11.6897 43.0628
lfingers 7.12502
lthumb 14.356 72.5464
rfemur -28.0294 0.99554 11.2905
rtibia 42.9657
rfoot -11.979 -5.05587
rtoes 19.3681
lfemur -11.4563 -6.08683 -12.1659
ltibia 34.0789
lfoot -20.2552 -2.25562
ltoes -12.2797
233
root 10.7562 17.2707 9.46024 1.85614 6.38817 1.96099
lowerback 9.41755 0.455239 -2.7627
upperback -1.60092 0.578752 4.30788
thorax -7.0717 0.49923 6.05378
lowerneck -3.00905 -6.91811 -16.8843
upperneck 16.5625 -10.5759 15.6002
head 7.25469 -5.11787 7.132
rclavicle 5.2181e-015 -1.59028e-014
rhumerus -16.5489 -7.46868 -55.7339
rradius 81.8116
rwrist -23.8985
rhand -18.4263 19.0222
rfingers 7.12502
rthumb 7.85887 -10.8117
lclavicle 5.2181e-015 -1.59028e-014
lhumerus -34.7482 51.5541 33.2337
lradius 22.9327
lwrist -1.82333
lhand -10.3916 41.9317
lfingers 7.12502
lthumb 15.6065 71.3221
rfemur -27.994 1.16377 10.754
rtibia 42.695
rfoot -11.7952 -4.80063
rtoes 19.3531
lfemur -11.1981 -6.26147 -12.8463
ltibia 33.8823
lfoot -20.6098 -1.30957
ltoes -12.3614
234
root 10.8378 17.284 9.47682 1.94261 6.18724 2.12982
lowerback 9.30507 0.433189 -3.02495
upperback -1.66167 0.512108 4.19534
thorax -7.06543 0.475623 6.09333
lowerneck -6.7802 -8.39984 -16.1022
upperneck 20.3588 -12.2059 13.5271
head 9.33802 -5.81649 6.00419
rclavicle -4.72114e-015 3.18055e-015
rhumerus -16.5877 -7.08792 -55.8899
rradius 82.5686
rwrist -23.6929
rhand -18.7132 19.5567
rfingers 7.12502
rthumb 7.58199 -10.2874
lclavicle -4.72114e-015 3.18055e-015
lhumerus -36.7657 49.7686 30.9842
lradius 22.8345
lwrist -2.02155
lhand -9.41613 40.1676
lfingers 7.12502
lthumb 16.5458 69.4822
rfemur -27.8499 1.33884 10.2579
rtibia 42.3959
rfoot -11.6496 -4.77007
rtoes 19.3883
lfemur -10.9982 -6.64115 -13.4195
ltibia 33.6999
lfoot -20.7752 -0.694494
ltoes -12.1875
235
root 10.9206 17.2945 9.48909 2.11581 5.98337 2.43714
lowerback 9.19235 0.434245 -3.46117
upperback -1.71964 0.456146 4.07866
thorax -7.0595 0.464557 6.22715
lowerneck -6.3671 -8.5608 -16.2857
upperneck 20.5184 -12.5429 13.7588
head 9.40242 -5.98534 6.08957
rclavicle 2.18663e-015 -1.27222e-014
rhumerus -16.7913 -6.79308 -56.0178
rradius 83.4535
rwrist -23.4484
rhand -19.0055 19.9325
rfingers 7.12502
rthumb 7.29989 -9.92154
lclavicle 2.18663e-015 -1.27222e-014
lhumerus -38.8212 48.1956 28.8806
lradius 22.7964
lwrist -2.95528
lhand -8.76245 38.355
lfingers 7.12502
lthumb 17.1751 67.6159
rfemur -27.8017 1.45357 9.59593
rtibia 42.0888
rfoot -11.5382 -4.69951
rtoes 19.8773
lfemur -10.9325 -6.95097 -14.1123
ltibia 33.5438
lfoot -20.6815 -0.254297
ltoes -12.0933
236
root 11.0026 17.3026 9.50025 2.21009 5.89124 2.5818
lowerback 8.96836 0.402888 -3.74683
upperback -1.55824 0.379402 4.03181
thorax -6.75067 0.424219 6.34658
lowerneck -6.4963 -8.93776 -16.462
upperneck 20.9172 -13.1229 13.9223
head 9.6944 -6.24755 6.0971
rclavicle -1.66979e-014 -2.06736e-014
rhumerus -16.6587 -6.74969 -56.1873
rradius 84.2218
rwrist -23.1807
rhand -19.1032 20.1289
rfingers 7.12502
rthumb 7.2055 -9.72847
lclavicle -1.66979e-014 -2.06736e-014
lhumerus -40.5388 47.3292 27.1301
lradius 22.7486
lwrist -4.19395
lhand -8.65841 36.8532
lfingers 7.12502
lthumb 17.2752 66.1053
rfemur -27.647 1.47381 9.12918
rtibia 41.774
rfoot -11.4866 -4.65344
rtoes 20.3735
lfemur -10.8822 -7.03683 -14.5617
ltibia 33.4254
lfoot -20.5174 -0.381248
ltoes -10.8321
237
root 11.077 17.3114 9.51086 2.28147 5.75502 2.56848
lowerback 8.86598 0.401143 -3.99673
upperback -1.51348 0.35174 4.05368
thorax -6.64359 0.416577 6.51661
lowerneck -6.47758 -9.31705 -16.6589
upperneck 21.4352 -13.7319 14.0334
head 10.0086 -6.53381 6.09019
rclavicle 1.33186e-014 -1.59028e-014
rhumerus -16.788 -6.57646 -56.3044
rradius 84.9341
rwrist -23.0469
rhand -18.9437 20.1114
rfingers 7.12502
rthumb 7.35953 -9.74059
lclavicle 1.33186e-014 -1.59028e-014
lhumerus -41.7956 45.515 26.343
lradius 23.0411
lwrist -4.47445
lhand -9.04237 35.84
lfingers 7.12502
lthumb 16.9057 65.1242
rfemur -27.5125 1.68241 8.86328
rtibia 41.4821
rfoot -11.4531 -4.76045
rtoes 20.7322
lfemur -10.8691 -6.64901 -14.7332
ltibia 33.3316
lfoot -20.5271 -1.05318
ltoes -8.73662
238
root 11.1418 17.3225 9.52202 2.37088 5.47101 2.56245
lowerback 8.79941 0.478834 -4.37308
upperback -1.52894 0.416166 4.0666
thorax -6.63652 0.463697 6.73883
lowerneck -6.32989 -9.69495 -16.8098
upperneck 21.8943 -14.3659 14.1534
head 10.2839 -6.83197 6.07631
rclavicle -9.93923e-017 1.43125e-014
rhumerus -17.2244 -6.39682 -56.4559
rradius 85.6405
rwrist -22.847
rhand -18.9358 20.2205
rfingers 7.12502
rthumb 7.36713 -9.63122
lclavicle -9.93923e-017 1.43125e-014
lhumerus -42.7841 42.7721 26.3218
lradius 23.7969
lwrist -4.53079
lhand -8.92719 35.7975
lfingers 7.12502
lthumb 17.0165 65.0722
rfemur -27.4757 2.2607 8.60608
rtibia 41.2209
rfoot -11.4534 -5.09197
rtoes 21.1711
lfemur -10.8628 -5.69749 -14.8215
ltibia 33.246
lfoot -20.6807 -1.92667
ltoes -8.01509
